<!--
used to convert SVG to JSX https://svg2jsx.com/
SVG updated on https://mediamodifier.com/free-svg-editor
SVG downloaded/ GOT from https://iconscout.com/icon-pack/university-166_264331 
-->

<?xml version="1.0" encoding="UTF-8" standalone="no" ?>
<!DOCTYPE svg PUBLIC "-//W3C//DTD SVG 1.1//EN" "http://www.w3.org/Graphics/SVG/1.1/DTD/svg11.dtd">
<svg xmlns="http://www.w3.org/2000/svg" xmlns:xlink="http://www.w3.org/1999/xlink" version="1.1" width="1080" height="1080" viewBox="0 0 1080 1080" xml:space="preserve">
<desc>Created with Fabric.js 5.2.4</desc>
<defs>
</defs>
<g transform="matrix(1 0 0 1 540 540)" id="32f957db-f8c3-430b-97b8-e12824414f6b"  >
<rect style="stroke: none; stroke-width: 1; stroke-dasharray: none; stroke-linecap: butt; stroke-dashoffset: 0; stroke-linejoin: miter; stroke-miterlimit: 4; fill: rgb(255,255,255); fill-rule: nonzero; opacity: 1; visibility: hidden;" vector-effect="non-scaling-stroke"  x="-540" y="-540" rx="0" ry="0" width="1080" height="1080" />
</g>
<g transform="matrix(1 0 0 1 540 540)" id="b8c92067-ffaa-40b9-8333-c09a88daebd7"  >
</g>
<g transform="matrix(22.52 0 0 22.52 539.91 866.58)"  >
<path style="stroke: none; stroke-width: 1; stroke-dasharray: none; stroke-linecap: butt; stroke-dashoffset: 0; stroke-linejoin: miter; stroke-miterlimit: 4; fill: rgb(12,160,242); fill-rule: nonzero; opacity: 1;" vector-effect="non-scaling-stroke"  transform=" translate(-24, -38)" d="M 19 31 L 10.361 34.6 C 8.226 35.49 6.58 37.260000000000005 5.848000000000001 39.455 L 4.877000000000001 42.367999999999995 C 4.445 43.663 5.409000000000001 44.99999999999999 6.774000000000001 44.99999999999999 L 41.224000000000004 44.99999999999999 C 42.589000000000006 44.99999999999999 43.553000000000004 43.66299999999999 43.121 42.367999999999995 L 42.150000000000006 39.455 C 41.418000000000006 37.26 39.773 35.489999999999995 37.63700000000001 34.599999999999994 L 28.998000000000008 30.999999999999993 L 18.998000000000008 30.999999999999993 Z" stroke-linecap="round" />
</g>
<g transform="matrix(22.52 0 0 22.52 539.97 822.51)"  >
<path style="stroke: none; stroke-width: 1; stroke-dasharray: none; stroke-linecap: butt; stroke-dashoffset: 0; stroke-linejoin: miter; stroke-miterlimit: 4; fill: rgb(246,162,141); fill-rule: nonzero; opacity: 1;" vector-effect="non-scaling-stroke"  transform=" translate(-24, -36.04)" d="M 29 28 L 29 32.46 C 29 36.703 27.314 40.773 24.314 43.774 L 24 44.088 L 24 44 C 24 44 23.686 43.686 23.686 43.686 C 20.685 40.685 19 36.616 19 32.372 L 19 27.999 L 29 27.999 Z" stroke-linecap="round" />
</g>
<g transform="matrix(22.52 0 0 22.52 540.36 937.52)"  >
<path style="stroke: none; stroke-width: 1; stroke-dasharray: none; stroke-linecap: butt; stroke-dashoffset: 0; stroke-linejoin: miter; stroke-miterlimit: 4; fill: rgb(0,117,211); fill-rule: nonzero; opacity: 1;" vector-effect="non-scaling-stroke"  transform=" translate(-24.02, -41.15)" d="M 20.117 38.214 C 20.914 40.245 22.114 42.114 23.686 43.687 L 24 44.001 L 24 44.089 L 24.314 43.775 C 25.91 42.179 27.121 40.275 27.917 38.208999999999996 C 25.341 38.583 22.694000000000003 38.584999999999994 20.118000000000002 38.214 Z" stroke-linecap="round" />
</g>
<g transform="matrix(22.52 0 0 22.52 539.94 388.79)"  >
<path style="stroke: none; stroke-width: 1; stroke-dasharray: none; stroke-linecap: butt; stroke-dashoffset: 0; stroke-linejoin: miter; stroke-miterlimit: 4; fill: rgb(13,59,141); fill-rule: nonzero; opacity: 1;" vector-effect="non-scaling-stroke"  transform=" translate(-24, -16.79)" d="M 30.7 31.56 L 38 30 C 36.32 27.9 35.34 25.38 35.14 22.77 L 35.72 17.54 L 35.91 16.74 C 36.12 15.849999999999998 36.22 14.939999999999998 36.22 14.04 C 36.22 11.87 35.629999999999995 9.719999999999999 34.5 7.829999999999999 C 32.33 4.209999999999999 28.42 1.9999999999999991 24.21 1.9999999999999991 L 23.79 1.9999999999999991 C 21.68 1.9999999999999991 19.66 2.549999999999999 17.88 3.559999999999999 C 16.099999999999998 4.559999999999999 14.579999999999998 6.02 13.5 7.829999999999998 C 11.9 10.499999999999998 11.39 13.7 12.09 16.74 L 12.28 17.54 L 12.86 22.77 C 12.66 25.38 11.68 27.9 10 30 L 17.3 31.56 C 17.38 31.58 30.62 31.58 30.700000000000003 31.56 Z" stroke-linecap="round" />
</g>
<g transform="matrix(22.52 0 0 22.52 539.95 520.68)"  >
<path style="stroke: none; stroke-width: 1; stroke-dasharray: none; stroke-linecap: butt; stroke-dashoffset: 0; stroke-linejoin: miter; stroke-miterlimit: 4; fill: rgb(255,205,180); fill-rule: nonzero; opacity: 1;" vector-effect="non-scaling-stroke"  transform=" translate(-24, -22.64)" d="M 34 17 L 34 17 C 32.047 16.349 30.338 15.117 29.103 13.47 L 28 12 L 28 12 C 26.047 13.953 23.544 15.265 20.826 15.759 L 14 17 C 12.34 17 11 18.34 11 20 C 11 21.66 12.34 23 14 23 C 14.22 23 14.44 22.97 14.65 22.92 L 15.27 25.73 C 15.74 27.82 17.02 29.64 18.84 30.78 L 21.88 32.67 C 23.18 33.49 24.82 33.49 26.119999999999997 32.67 L 29.159999999999997 30.78 C 30.979999999999997 29.64 32.26 27.82 32.73 25.73 L 33.349999999999994 22.92 C 33.559999999999995 22.970000000000002 33.779999999999994 23 33.99999999999999 23 C 35.65999999999999 23 36.99999999999999 21.66 36.99999999999999 20 C 36.99999999999999 18.34 35.65999999999999 17 33.99999999999999 17 Z" stroke-linecap="round" />
</g>
<g transform="matrix(22.52 0 0 22.52 540 540)"  >
<path style="stroke: none; stroke-width: 1; stroke-dasharray: none; stroke-linecap: butt; stroke-dashoffset: 0; stroke-linejoin: miter; stroke-miterlimit: 4; fill: rgb(8,16,94); fill-rule: nonzero; opacity: 1;" vector-effect="non-scaling-stroke"  transform=" translate(-24, -23.5)" d="M 44.071 42.051 L 43.1 39.137 C 42.277 36.667 40.426 34.677 38.023 33.676 L 33.80500000000001 31.918000000000003 L 38.209 30.977000000000004 C 38.548 30.904000000000003 38.825 30.662000000000003 38.942 30.335000000000004 C 39.059 30.009000000000004 38.998 29.645000000000003 38.781 29.375000000000004 C 37.372 27.614000000000004 36.494 25.531000000000002 36.208999999999996 23.322000000000003 C 37.285 22.604000000000003 37.99999999999999 21.387000000000004 37.99999999999999 19.999000000000002 C 37.99999999999999 18.902 37.55199999999999 17.911 36.834999999999994 17.188000000000002 C 37.06399999999999 16.21 37.18999999999999 15.208000000000002 37.18999999999999 14.189000000000002 C 37.18999999999999 6.916000000000002 31.27299999999999 0.9990000000000023 23.999999999999993 0.9990000000000023 C 16.726999999999997 0.9990000000000023 10.809999999999993 6.916000000000002 10.809999999999993 14.189000000000002 C 10.809999999999993 15.207000000000003 10.935999999999993 16.207 11.163999999999993 17.184 C 10.445999999999993 17.908 9.999999999999993 18.901 9.999999999999993 19.999000000000002 C 9.999999999999993 21.387 10.714999999999993 22.604000000000003 11.790999999999993 23.322000000000003 C 11.505999999999993 25.531000000000002 10.628999999999994 27.613000000000003 9.218999999999994 29.375000000000004 C 9.001999999999994 29.646000000000004 8.940999999999994 30.009000000000004 9.057999999999995 30.335000000000004 C 9.174999999999995 30.662000000000006 9.451999999999995 30.904000000000003 9.790999999999995 30.977000000000004 L 14.194999999999995 31.918000000000003 L 9.976999999999995 33.675000000000004 C 7.5739999999999945 34.676 5.723999999999995 36.667 4.899999999999995 39.136 L 3.928999999999995 42.050000000000004 C 3.6199999999999948 42.976000000000006 3.770999999999995 43.961000000000006 4.341999999999995 44.75300000000001 C 4.9119999999999955 45.54500000000001 5.799999999999995 45.99900000000001 6.775999999999995 45.99900000000001 L 41.226 45.99900000000001 C 42.202 45.99900000000001 43.089 45.54500000000001 43.66 44.75300000000001 C 44.230999999999995 43.961000000000006 44.38099999999999 42.976000000000006 44.07299999999999 42.050000000000004 Z M 24.038999999999998 42.589 C 23.110999999999997 41.594 22.322999999999997 40.501999999999995 21.705999999999996 39.324999999999996 C 22.465999999999998 39.431 23.231999999999996 39.49099999999999 23.998999999999995 39.49099999999999 C 24.780999999999995 39.49099999999999 25.561999999999994 39.428999999999995 26.336999999999996 39.31799999999999 C 25.729999999999997 40.49599999999999 24.955999999999996 41.590999999999994 24.038999999999994 42.58899999999999 Z M 11.998999999999999 20 C 11.998999999999999 18.897 12.895999999999999 18 13.998999999999999 18 C 14.059 18 14.118999999999998 17.995 14.177999999999999 17.984 L 21.003999999999998 16.743000000000002 C 23.557999999999996 16.279000000000003 25.907999999999998 15.160000000000002 27.863999999999997 13.487000000000002 L 28.301999999999996 14.071000000000002 C 29.665999999999997 15.889000000000001 31.525999999999996 17.23 33.68299999999999 17.949 C 33.78499999999999 17.983 33.891999999999996 18 33.998999999999995 18 C 35.102 18 35.998999999999995 18.897 35.998999999999995 20 C 35.998999999999995 21.103 35.102 22 33.998999999999995 22 C 33.867999999999995 22 33.727999999999994 21.982 33.581999999999994 21.947 C 33.318999999999996 21.884999999999998 33.04599999999999 21.93 32.81799999999999 22.072 C 32.590999999999994 22.215 32.42999999999999 22.442 32.37199999999999 22.704 L 31.752999999999993 25.51 C 31.33599999999999 27.361 30.226999999999993 28.931 28.630999999999993 29.93 L 25.584999999999994 31.823999999999998 C 24.605999999999995 32.44 23.390999999999995 32.440999999999995 22.405999999999995 31.820999999999998 L 19.368999999999996 29.932 C 17.769999999999996 28.930999999999997 16.660999999999994 27.360999999999997 16.244999999999997 25.515 L 15.624999999999998 22.705000000000002 C 15.566999999999998 22.443 15.405999999999999 22.215000000000003 15.178999999999998 22.073 C 15.017999999999999 21.972 14.833999999999998 21.921 14.647999999999998 21.921 C 14.569999999999999 21.921 14.491999999999997 21.93 14.414999999999997 21.948 C 14.268999999999997 21.983 14.128999999999998 22.001 13.997999999999998 22.001 C 12.894999999999998 22.001 11.997999999999998 21.104000000000003 11.997999999999998 20.001 Z M 27.256999999999998 37.107 C 25.128999999999998 37.599 22.903999999999996 37.6 20.775 37.113 C 20.305999999999997 35.7 20.046 34.214 20.014 32.688 L 21.345 33.516000000000005 C 22.163999999999998 34.03300000000001 23.083 34.291000000000004 24 34.291000000000004 C 24.917 34.291000000000004 25.832 34.034000000000006 26.646 33.52 L 27.987000000000002 32.686 C 27.965000000000003 34.21 27.714000000000002 35.696 27.256 37.108 Z M 36.301 29.34 L 31.196 30.431 C 32.433 29.217000000000002 33.321 27.657 33.706 25.945 L 34.136 23.997 C 34.192 23.995 34.244 23.979 34.299 23.975 C 34.601 25.882 35.265 27.705000000000002 36.301 29.339000000000002 Z M 12.81 14.19 C 12.81 8.02 17.83 3 24 3 C 30.17 3 35.19 8.02 35.19 14.19 C 35.19 14.847999999999999 35.126 15.497 35.013999999999996 16.136 C 34.74399999999999 16.064999999999998 34.465999999999994 16.016 34.178 16.003999999999998 C 32.467999999999996 15.402999999999999 30.990999999999996 14.321999999999997 29.903 12.869999999999997 L 28.799999999999997 11.399999999999997 C 28.625999999999998 11.167999999999997 28.359999999999996 11.022999999999996 28.070999999999998 11.002999999999997 C 27.787999999999997 10.984999999999996 27.497999999999998 11.087999999999997 27.293 11.293999999999997 C 25.474999999999998 13.111999999999997 23.177 14.315999999999997 20.647 14.775999999999996 L 13.902999999999999 16.001999999999995 C 13.584999999999999 16.009999999999994 13.280999999999999 16.063999999999997 12.985999999999999 16.141999999999996 C 12.873 15.501999999999995 12.809999999999999 14.850999999999996 12.809999999999999 14.190999999999995 Z M 13.701 23.976 C 13.756 23.98 13.808 23.996 13.864 23.997999999999998 L 14.295 25.949999999999996 C 14.679 27.657999999999994 15.567 29.217999999999996 16.804 30.431999999999995 L 11.697999999999999 29.340999999999994 C 12.735 27.705999999999992 13.399 25.883999999999993 13.7 23.976999999999993 Z M 5.964 43.585 C 5.774 43.321 5.724 42.993 5.827 42.685 L 6.798 39.771 C 7.438 37.85 8.878 36.302 10.747 35.523 L 18.006999999999998 32.498000000000005 C 18.037999999999997 36.81400000000001 19.677 40.868 22.622999999999998 44.001000000000005 L 6.775 44.001000000000005 C 6.45 44.001000000000005 6.154 43.85 5.963 43.58500000000001 Z M 42.037 43.585 C 41.847 43.849000000000004 41.551 44.001 41.225 44.001 L 25.457 44.001 C 28.372 40.858999999999995 29.989 36.809 29.998 32.5 L 37.254000000000005 35.524 C 39.123000000000005 36.302 40.563 37.851 41.203 39.772 L 42.174 42.686 C 42.277 42.995 42.227 43.323 42.037 43.586 Z" stroke-linecap="round" />
</g>
</svg>