<!--
used to convert SVG to JSX https://svg2jsx.com/
SVG updated on https://mediamodifier.com/free-svg-editor
SVG downloaded/ GOT from https://iconscout.com/icon-pack/university-166_264331 
-->

<?xml version="1.0" encoding="UTF-8" standalone="no" ?>
<!DOCTYPE svg PUBLIC "-//W3C//DTD SVG 1.1//EN" "http://www.w3.org/Graphics/SVG/1.1/DTD/svg11.dtd">
<svg xmlns="http://www.w3.org/2000/svg" xmlns:xlink="http://www.w3.org/1999/xlink" version="1.1" width="1080" height="1080" viewBox="0 0 1080 1080" xml:space="preserve">
<desc>Created with Fabric.js 5.2.4</desc>
<defs>
</defs>
<g transform="matrix(1 0 0 1 540 540)" id="546f2674-fa0a-4163-98f5-753085e4078d"  >
<rect style="stroke: none; stroke-width: 1; stroke-dasharray: none; stroke-linecap: butt; stroke-dashoffset: 0; stroke-linejoin: miter; stroke-miterlimit: 4; fill: rgb(255,255,255); fill-rule: nonzero; opacity: 1; visibility: hidden;" vector-effect="non-scaling-stroke"  x="-540" y="-540" rx="0" ry="0" width="1080" height="1080" />
</g>
<g transform="matrix(Infinity NaN NaN Infinity 0 0)" id="965ff76f-9620-4ca8-a3b4-a6ef941aa71a"  >
</g>
<g transform="matrix(22.5 0 0 22.5 540 540)"  >
<g style=""   >
		<g transform="matrix(1 0 0 1 0 14)"  >
<path style="stroke: none; stroke-width: 1; stroke-dasharray: none; stroke-linecap: butt; stroke-dashoffset: 0; stroke-linejoin: miter; stroke-miterlimit: 4; fill: rgb(12,160,242); fill-rule: nonzero; opacity: 1;" vector-effect="non-scaling-stroke"  transform=" translate(-24, -38)" d="M 29 31 L 37.443 33.598 C 40.251 34.461999999999996 42.358999999999995 36.795 42.934999999999995 39.675 L 43.522 42.608 C 43.769999999999996 43.846 42.823 45 41.561 45 L 6.44 45 C 5.178000000000001 45 4.231 43.845 4.479 42.608 L 5.066 39.675 C 5.6419999999999995 36.794999999999995 7.75 34.461999999999996 10.558 33.598 L 19.000999999999998 31 L 29.000999999999998 31 Z" stroke-linecap="round" />
</g>
		<g transform="matrix(1 0 0 1 0 11.5)"  >
<path style="stroke: none; stroke-width: 1; stroke-dasharray: none; stroke-linecap: butt; stroke-dashoffset: 0; stroke-linejoin: miter; stroke-miterlimit: 4; fill: rgb(0,117,211); fill-rule: nonzero; opacity: 1;" vector-effect="non-scaling-stroke"  transform=" translate(-24, -35.5)" d="M 29 31 C 29 31 30.899 33.532 30.899 33.532 C 31.626 34.501 32.151 35.605 32.445 36.78 C 32.739 37.955 31.929 39.119 30.726 39.253 L 24 40 L 17.274 39.253 C 16.07 39.119 15.261 37.955 15.555 36.78 C 15.849 35.605 16.374 34.501 17.101 33.532 L 19 31 C 19 31 29 31 29 31 Z" stroke-linecap="round" />
</g>
		<g transform="matrix(1 0 0 1 0 -12.12)"  >
<path style="stroke: none; stroke-width: 1; stroke-dasharray: none; stroke-linecap: butt; stroke-dashoffset: 0; stroke-linejoin: miter; stroke-miterlimit: 4; fill: rgb(13,59,141); fill-rule: nonzero; opacity: 1;" vector-effect="non-scaling-stroke"  transform=" translate(-24, -11.88)" d="M 12.37 17.48 L 11.649999999999999 14.61 C 11.229999999999999 12.92 11.37 11.129999999999999 12.059999999999999 9.52 L 12.399999999999999 8.73 C 13.409999999999998 6.390000000000001 15.469999999999999 4.66 17.959999999999997 4.090000000000001 L 22.869999999999997 2.950000000000001 C 23.439999999999998 2.820000000000001 24.009999999999998 2.760000000000001 24.589999999999996 2.760000000000001 C 26.589999999999996 2.760000000000001 28.539999999999996 3.540000000000001 29.999999999999996 5.000000000000002 C 32.43 5.000000000000002 34.62 6.450000000000002 35.58 8.680000000000001 L 35.94 9.520000000000001 C 36.629999999999995 11.13 36.769999999999996 12.920000000000002 36.349999999999994 14.610000000000001 L 35.629999999999995 17.48 L 33.99999999999999 21 L 15 21 L 12.370000000000001 17.48 Z" stroke-linecap="round" />
</g>
		<g transform="matrix(1 0 0 1 0 8.94)"  >
<path style="stroke: none; stroke-width: 1; stroke-dasharray: none; stroke-linecap: butt; stroke-dashoffset: 0; stroke-linejoin: miter; stroke-miterlimit: 4; fill: rgb(246,162,141); fill-rule: nonzero; opacity: 1;" vector-effect="non-scaling-stroke"  transform=" translate(-24, -32.94)" d="M 19 31 L 19 31 C 19 33.585 19.906 36.087 21.561 38.073 L 22.464 39.156 C 23.264 40.116 24.737 40.116 25.537 39.156 L 26.439999999999998 38.073 C 28.095 36.087 29.000999999999998 33.585 29.000999999999998 31 L 29.000999999999998 31 L 29.000999999999998 26 L 19.000999999999998 26 L 19.000999999999998 31 Z" stroke-linecap="round" />
</g>
		<g transform="matrix(1 0 0 1 0 -1.36)"  >
<path style="stroke: none; stroke-width: 1; stroke-dasharray: none; stroke-linecap: butt; stroke-dashoffset: 0; stroke-linejoin: miter; stroke-miterlimit: 4; fill: rgb(255,205,180); fill-rule: nonzero; opacity: 1;" vector-effect="non-scaling-stroke"  transform=" translate(-24, -22.64)" d="M 34 17 L 32 19 L 31.5 17 L 31.34 16.34 C 31.11 15.45 30.74 14.61 30.23 13.85 L 29 12 C 27.03 13.31 24.77 14.14 22.42 14.4 L 19.76 14.69 C 18.35 14.85 17.150000000000002 15.74 16.57 17 C 16.47 17.22 16.39 17.46 16.330000000000002 17.7 L 16.000000000000004 19 L 14.000000000000004 17 C 13.400000000000004 17 12.840000000000003 17.18 12.370000000000005 17.48 C 11.540000000000004 18.01 11.000000000000004 18.94 11.000000000000004 20 C 11.000000000000004 21.66 12.340000000000003 23 14.000000000000004 23 C 14.220000000000004 23 14.440000000000003 22.97 14.650000000000004 22.92 L 15.270000000000003 25.73 C 15.740000000000004 27.82 17.020000000000003 29.64 18.840000000000003 30.78 L 21.880000000000003 32.67 C 23.180000000000003 33.49 24.820000000000004 33.49 26.120000000000005 32.67 L 29.160000000000004 30.78 C 30.980000000000004 29.64 32.260000000000005 27.82 32.730000000000004 25.73 L 33.35 22.92 C 33.56 22.970000000000002 33.78 23 34 23 C 35.66 23 37 21.66 37 20 C 37 18.94 36.46 18.01 35.63 17.48 C 35.160000000000004 17.18 34.6 17 34 17 Z" stroke-linecap="round" />
</g>
		<g transform="matrix(1 0 0 1 0 -0.12)"  >
<path style="stroke: none; stroke-width: 1; stroke-dasharray: none; stroke-linecap: butt; stroke-dashoffset: 0; stroke-linejoin: miter; stroke-miterlimit: 4; fill: rgb(8,16,94); fill-rule: nonzero; opacity: 1;" vector-effect="non-scaling-stroke"  transform=" translate(-24, -23.88)" d="M 44.502 42.412 L 43.916000000000004 39.479 C 43.267 36.235 40.900000000000006 33.615 37.737 32.641999999999996 L 31.043000000000003 30.581999999999997 C 32.362 29.348999999999997 33.306000000000004 27.727999999999998 33.707 25.944999999999997 L 34.137 23.996999999999996 C 36.28 23.924999999999997 38.001 22.159999999999997 38.001 19.998999999999995 C 38.001 18.881999999999994 37.541999999999994 17.846999999999994 36.756 17.103999999999996 L 37.322 14.849999999999996 C 37.793 12.952999999999996 37.629000000000005 10.918999999999997 36.86 9.124999999999996 L 36.5 8.283999999999997 C 35.435 5.807999999999997 33.075 4.165999999999997 30.415 4.011999999999997 C 28.819 2.555999999999997 26.767 1.7599999999999971 24.592 1.7599999999999971 C 23.918999999999997 1.7599999999999971 23.282999999999998 1.8299999999999972 22.645999999999997 1.975999999999997 L 17.738999999999997 3.114999999999997 C 14.957999999999997 3.751999999999997 12.619999999999997 5.702999999999998 11.483999999999998 8.334999999999997 L 11.143999999999998 9.125999999999998 C 10.374999999999998 10.919999999999998 10.210999999999999 12.953999999999997 10.682999999999998 14.852999999999998 L 11.247999999999998 17.104999999999997 C 10.461999999999998 17.847999999999995 10.002999999999997 18.882999999999996 10.002999999999997 19.999999999999996 C 10.002999999999997 22.159999999999997 11.723999999999997 23.925999999999995 13.866999999999997 23.997999999999998 L 14.297999999999996 25.949999999999996 C 14.697999999999997 27.728999999999996 15.641999999999996 29.348999999999997 16.960999999999995 30.582999999999995 L 10.265999999999995 32.642999999999994 C 7.103999999999995 33.61599999999999 4.736999999999995 36.23599999999999 4.087999999999995 39.47999999999999 L 3.501999999999995 42.41299999999999 C 3.324999999999995 43.29799999999999 3.550999999999995 44.20499999999999 4.123999999999995 44.90299999999999 C 4.696999999999996 45.60099999999999 5.540999999999995 46.00099999999999 6.4439999999999955 46.00099999999999 L 41.565 46.00099999999999 C 42.467 46.00099999999999 43.312999999999995 45.60099999999999 43.885 44.90299999999999 C 44.457 44.20499999999999 44.684 43.297999999999995 44.507 42.41299999999999 Z M 24.769000000000002 38.516 C 24.508000000000003 38.829 24.175 38.876 24.000000000000004 38.876 C 23.825000000000006 38.876 23.493000000000002 38.829 23.231000000000005 38.516 L 22.328000000000007 37.433 C 21.210000000000008 36.091 20.468000000000007 34.482 20.160000000000007 32.778999999999996 L 21.345000000000006 33.516 C 22.164000000000005 34.033 23.083000000000006 34.291 24.000000000000007 34.291 C 24.91700000000001 34.291 25.832000000000008 34.034 26.646000000000008 33.519999999999996 L 27.837000000000007 32.779999999999994 C 27.53000000000001 34.483 26.787000000000006 36.09199999999999 25.669000000000008 37.434 L 24.76600000000001 38.516999999999996 Z M 16.526000000000003 37.022 C 16.789000000000005 35.971 17.251000000000005 34.998999999999995 17.901000000000003 34.132 L 18.289000000000005 33.614999999999995 C 18.696000000000005 35.443 19.527000000000005 37.166 20.724000000000004 38.629999999999995 L 17.385000000000005 38.25899999999999 C 17.094000000000005 38.22599999999999 16.842000000000006 38.07599999999999 16.675000000000004 37.83599999999999 C 16.508000000000003 37.59599999999999 16.455000000000005 37.30699999999999 16.526000000000003 37.02199999999999 Z M 31.326000000000004 37.836 C 31.159000000000002 38.077 30.907000000000004 38.227 30.616000000000003 38.259 L 27.277000000000005 38.63 C 28.474000000000004 37.166000000000004 29.305000000000003 35.443000000000005 29.712000000000003 33.615 L 30.100000000000005 34.132000000000005 C 30.750000000000004 34.999 31.212000000000003 35.971000000000004 31.475000000000005 37.022000000000006 C 31.546000000000006 37.306000000000004 31.493000000000006 37.595000000000006 31.326000000000004 37.83500000000001 Z M 12.979 9.915 L 13.318 9.126 C 14.202 7.077999999999999 16.021 5.56 18.186 5.063999999999999 L 23.093 3.924999999999999 C 23.579 3.8139999999999987 24.069 3.759999999999999 24.59 3.759999999999999 C 26.367 3.759999999999999 28.037 4.450999999999999 29.293 5.706999999999999 C 29.480999999999998 5.894999999999999 29.735 5.999999999999999 30 5.999999999999999 C 32.027 5.999999999999999 33.857 7.206999999999999 34.661 9.073999999999998 L 35.021 9.913999999999998 C 35.619 11.309999999999999 35.747 12.891999999999998 35.38 14.366999999999997 L 34.940000000000005 16.121999999999996 C 34.633 16.046999999999997 34.319 15.999999999999996 34.00000000000001 15.999999999999996 C 33.870000000000005 15.999999999999996 33.74000000000001 16.026999999999997 33.61800000000001 16.076999999999998 C 33.49600000000001 16.127999999999997 33.38500000000001 16.200999999999997 33.293000000000006 16.293 L 32.54200000000001 17.044 L 32.30800000000001 16.089000000000002 C 32.04600000000001 15.076000000000002 31.62600000000001 14.135000000000002 31.06200000000001 13.296000000000003 L 29.832000000000008 11.446000000000003 C 29.686000000000007 11.225000000000003 29.457000000000008 11.071000000000003 29.197000000000006 11.019000000000004 C 28.937000000000005 10.967000000000004 28.667000000000005 11.019000000000004 28.446000000000005 11.167000000000003 C 26.605000000000004 12.391000000000004 24.483000000000004 13.165000000000003 22.311000000000007 13.405000000000003 L 19.646000000000008 13.696000000000003 C 17.91700000000001 13.892000000000003 16.390000000000008 14.998000000000003 15.658000000000008 16.588000000000005 C 15.590000000000009 16.738000000000003 15.529000000000009 16.896000000000004 15.474000000000009 17.061000000000003 L 14.70700000000001 16.294000000000004 C 14.615000000000009 16.202000000000005 14.50400000000001 16.129000000000005 14.38200000000001 16.078000000000003 C 14.26000000000001 16.027000000000005 14.13000000000001 16.001 14.00000000000001 16.001 C 13.68100000000001 16.001 13.368000000000011 16.048000000000002 13.060000000000011 16.123 L 12.620000000000012 14.370000000000001 C 12.25300000000001 12.893 12.380000000000011 11.311 12.978000000000012 9.916 Z M 16.247 25.515 L 15.627 22.705000000000002 C 15.569 22.443 15.408000000000001 22.215000000000003 15.181000000000001 22.073 C 14.953000000000001 21.931 14.678 21.886 14.417000000000002 21.948 C 14.271 21.983 14.131000000000002 22.001 14.000000000000002 22.001 C 12.897000000000002 22.001 12.000000000000002 21.104000000000003 12.000000000000002 20.001 C 12.000000000000002 19.314 12.339000000000002 18.687 12.908000000000001 18.324 C 13.133000000000001 18.181 13.383000000000001 18.102 13.638000000000002 18.054000000000002 L 15.292000000000002 19.708000000000002 C 15.482000000000001 19.898000000000003 15.737000000000002 20.001 15.999000000000002 20.001 C 16.087000000000003 20.001 16.177000000000003 19.989 16.264000000000003 19.965 C 16.611000000000004 19.869 16.880000000000003 19.595 16.968000000000004 19.247 L 17.299000000000003 17.944 C 17.344000000000005 17.762 17.404000000000003 17.58 17.477000000000004 17.419999999999998 C 17.915000000000003 16.467999999999996 18.833000000000006 15.802999999999997 19.867000000000004 15.685999999999998 L 22.529000000000003 15.395999999999999 C 24.690000000000005 15.156999999999998 26.804000000000002 14.457999999999998 28.703000000000003 13.361999999999998 L 29.399000000000004 14.408999999999999 C 29.839000000000006 15.063999999999998 30.166000000000004 15.797999999999998 30.367000000000004 16.576999999999998 L 31.029000000000003 19.244 C 31.116000000000003 19.594 31.385000000000005 19.869 31.732000000000003 19.965 C 32.079 20.06 32.452000000000005 19.963 32.706 19.708 L 34.36 18.054 C 34.615 18.101999999999997 34.865 18.180999999999997 35.089999999999996 18.323999999999998 C 35.659 18.686999999999998 35.998 19.313999999999997 35.998 20.000999999999998 C 35.998 21.104 35.101 22.000999999999998 33.998 22.000999999999998 C 33.867 22.000999999999998 33.727 21.982999999999997 33.580999999999996 21.947999999999997 C 33.318 21.885999999999996 33.044999999999995 21.930999999999997 32.81699999999999 22.072999999999997 C 32.589999999999996 22.215999999999998 32.428999999999995 22.442999999999998 32.370999999999995 22.705 L 31.751999999999995 25.511 C 31.334999999999994 27.362 30.225999999999996 28.932 28.629999999999995 29.930999999999997 L 25.583999999999996 31.824999999999996 C 24.604999999999997 32.440999999999995 23.390999999999995 32.44199999999999 22.404999999999998 31.821999999999996 L 19.368 29.932999999999996 C 17.769 28.931999999999995 16.659999999999997 27.361999999999995 16.244 25.516 Z M 5.667 43.634 C 5.476 43.402 5.3999999999999995 43.099000000000004 5.459 42.804 L 6.045 39.871 C 6.55 37.348 8.391 35.31 10.850999999999999 34.553000000000004 L 16.354999999999997 32.86000000000001 L 16.301 32.93200000000001 C 15.489999999999998 34.01300000000001 14.912999999999998 35.226000000000006 14.584999999999999 36.537000000000006 C 14.374999999999998 37.37700000000001 14.537999999999998 38.266000000000005 15.031999999999998 38.977000000000004 C 15.525999999999998 39.688 16.302999999999997 40.151 17.163999999999998 40.246 L 23 40.894000000000005 L 23 43.999 L 6.439 43.999 C 6.138 43.999 5.856 43.866 5.666 43.633 Z M 42.334 43.634 C 42.144000000000005 43.867 41.862 44 41.561 44 L 25 44 L 25 40.895 L 30.836 40.247 C 31.697 40.152 32.474 39.689 32.967999999999996 38.978 C 33.461999999999996 38.267 33.625 37.377 33.415 36.538000000000004 C 33.086999999999996 35.227000000000004 32.51 34.014 31.698999999999998 32.93300000000001 L 31.645 32.861000000000004 L 37.147999999999996 34.554 C 39.608 35.311 41.449 37.349000000000004 41.95399999999999 39.872 L 42.53999999999999 42.805 C 42.59899999999999 43.099 42.52299999999999 43.402 42.331999999999994 43.635 Z" stroke-linecap="round" />
</g>
</g>
</g>
</svg>